<?xml version="1.0" encoding="UTF-8" standalone="no"?>
<!-- Created with Inkscape (http://www.inkscape.org/) -->

<svg
   xmlns:dc="http://purl.org/dc/elements/1.1/"
   xmlns:cc="http://creativecommons.org/ns#"
   xmlns:rdf="http://www.w3.org/1999/02/22-rdf-syntax-ns#"
   xmlns:svg="http://www.w3.org/2000/svg"
   xmlns="http://www.w3.org/2000/svg"
   xmlns:xlink="http://www.w3.org/1999/xlink"
   xmlns:sodipodi="http://sodipodi.sourceforge.net/DTD/sodipodi-0.dtd"
   xmlns:inkscape="http://www.inkscape.org/namespaces/inkscape"
   width="1095.418mm"
   height="881.81659mm"
   viewBox="0 0 3881.4022 3124.5469"
   id="svg11753"
   version="1.1"
   inkscape:version="0.91 r13725"
   sodipodi:docname="logos.svg">
  <defs
     id="defs11755">
    <linearGradient
       inkscape:collect="always"
       id="linearGradient4568">
      <stop
         style="stop-color:#ffffff;stop-opacity:1;"
         offset="0"
         id="stop4570" />
      <stop
         style="stop-color:#000000;stop-opacity:1"
         offset="1"
         id="stop4572" />
    </linearGradient>
    <linearGradient
       inkscape:collect="always"
       id="linearGradient4548">
      <stop
         style="stop-color:#000000;stop-opacity:1"
         offset="0"
         id="stop4550" />
      <stop
         style="stop-color:#000000;stop-opacity:0;"
         offset="1"
         id="stop4552" />
    </linearGradient>
    <linearGradient
       inkscape:collect="always"
       xlink:href="#linearGradient4548"
       id="linearGradient4554"
       x1="-1155.7142"
       y1="230.93364"
       x2="-1130"
       y2="143.79079"
       gradientUnits="userSpaceOnUse"
       gradientTransform="translate(271.42854,1.42855)" />
    <linearGradient
       inkscape:collect="always"
       xlink:href="#linearGradient4548"
       id="linearGradient4558"
       gradientUnits="userSpaceOnUse"
       x1="-1155.7142"
       y1="230.93364"
       x2="-1130"
       y2="143.79079" />
    <linearGradient
       inkscape:collect="always"
       xlink:href="#linearGradient4568"
       id="linearGradient4580"
       gradientUnits="userSpaceOnUse"
       x1="-1141.4285"
       y1="112.36221"
       x2="-620.64099"
       y2="1329.907"
       gradientTransform="translate(275.71429,-4.2857)" />
    <linearGradient
       inkscape:collect="always"
       xlink:href="#linearGradient4568"
       id="linearGradient4584"
       gradientUnits="userSpaceOnUse"
       x1="-1141.4285"
       y1="112.36221"
       x2="-620.64099"
       y2="1329.907" />
    <linearGradient
       inkscape:collect="always"
       xlink:href="#linearGradient4568"
       id="linearGradient4747"
       gradientUnits="userSpaceOnUse"
       x1="-1141.4285"
       y1="112.36221"
       x2="-620.64099"
       y2="1329.907" />
    <linearGradient
       inkscape:collect="always"
       xlink:href="#linearGradient4568"
       id="linearGradient4749"
       gradientUnits="userSpaceOnUse"
       gradientTransform="translate(275.71429,-4.2857)"
       x1="-1141.4285"
       y1="112.36221"
       x2="-620.64099"
       y2="1329.907" />
    <linearGradient
       inkscape:collect="always"
       xlink:href="#linearGradient4548"
       id="linearGradient4751"
       gradientUnits="userSpaceOnUse"
       x1="-1155.7142"
       y1="230.93364"
       x2="-1130"
       y2="143.79079" />
    <linearGradient
       inkscape:collect="always"
       xlink:href="#linearGradient4548"
       id="linearGradient4753"
       gradientUnits="userSpaceOnUse"
       gradientTransform="translate(271.42854,1.42855)"
       x1="-1155.7142"
       y1="230.93364"
       x2="-1130"
       y2="143.79079" />
  </defs>
  <sodipodi:namedview
     id="base"
     pagecolor="#ffffff"
     bordercolor="#666666"
     borderopacity="1.0"
     inkscape:pageopacity="0.0"
     inkscape:pageshadow="2"
     inkscape:zoom="0.12374369"
     inkscape:cx="1450.9559"
     inkscape:cy="1137.4144"
     inkscape:document-units="mm"
     inkscape:current-layer="layer1"
     showgrid="false"
     inkscape:showpageshadow="false"
     guidecolor="#0092ff"
     guideopacity="0.49803922"
     guidehicolor="#ff5200"
     guidehiopacity="0.49803922"
     objecttolerance="8"
     guidetolerance="8"
     inkscape:window-width="1280"
     inkscape:window-height="755"
     inkscape:window-x="0"
     inkscape:window-y="1"
     inkscape:window-maximized="1"
     inkscape:object-nodes="false"
     showguides="true"
     inkscape:guide-bbox="true"
     inkscape:snap-bbox="true"
     inkscape:bbox-paths="false"
     inkscape:bbox-nodes="true"
     inkscape:snap-global="true"
     inkscape:snap-center="false"
     inkscape:snap-object-midpoints="true"
     inkscape:snap-bbox-edge-midpoints="true"
     fit-margin-top="0"
     fit-margin-left="0"
     fit-margin-right="0"
     fit-margin-bottom="0">
    <sodipodi:guide
       position="421.43182,4424.4151"
       orientation="0,1"
       id="guide4595" />
    <sodipodi:guide
       position="1661.8562,2305.7825"
       orientation="1,0"
       id="guide4634" />
    <sodipodi:guide
       position="1661.8562,2305.7825"
       orientation="0,1"
       id="guide4636" />
  </sodipodi:namedview>
  <metadata
     id="metadata11758">
    <rdf:RDF>
      <cc:Work
         rdf:about="">
        <dc:format>image/svg+xml</dc:format>
        <dc:type
           rdf:resource="http://purl.org/dc/dcmitype/StillImage" />
        <dc:title></dc:title>
        <dc:creator>
          <cc:Agent>
            <dc:title>karamellpelle@hotmail.com</dc:title>
          </cc:Agent>
        </dc:creator>
      </cc:Work>
    </rdf:RDF>
  </metadata>
  <g
     inkscape:label="Layer 1"
     inkscape:groupmode="layer"
     id="layer1"
     transform="translate(2627.605,1251.9939)">
    <rect
       style="opacity:1;fill:#000000;fill-opacity:1;stroke:#000000;stroke-width:2.41653538;stroke-linecap:round;stroke-linejoin:bevel;stroke-miterlimit:4;stroke-dasharray:none;stroke-dashoffset:0;stroke-opacity:1"
       id="rect4597"
       width="3878.9858"
       height="1664.7314"
       x="-2626.3967"
       y="-1250.7856" />
    <g
       transform="matrix(0.73050679,0,0,0.73050679,18.902741,-542.44406)"
       id="g4810">
      <path
         inkscape:connector-curvature="0"
         style="fill:#ffffff;fill-rule:evenodd;stroke:none;stroke-width:1px;stroke-linecap:butt;stroke-linejoin:miter;stroke-opacity:1"
         d="m -654.28571,415.21938 0,-531.42859 560.000004,0"
         id="path4812" />
      <path
         inkscape:connector-curvature="0"
         style="fill:#ff7f2a;fill-rule:evenodd;stroke:none;stroke-width:1px;stroke-linecap:butt;stroke-linejoin:miter;stroke-opacity:1"
         d="m -94.285706,-116.20921 0,531.42859 -560.000004,0 560.000004,-531.42859"
         id="path4814" />
    </g>
    <g
       transform="matrix(1.64608,0,0,1.64608,200.72021,-730.92208)"
       id="g4818">
      <g
         id="g4820">
        <path
           style="fill:#933ec5"
           inkscape:connector-curvature="0"
           d="m 5.959,168.687 c 0,-45.567 23.046,-85.226 57.628,-111.059 8.16,-6.095 24.511,-8.806 31.083,-1.015 4.071,4.816 5.527,10.614 5.693,16.117 0.315,10.182 -10.235,22.578 -17.498,29.718 -17.348,17.069 -28.28,40.214 -28.28,66.377 0,54.733 44.37,96.228 99.103,96.228 54.752,0 99.133,-41.494 99.133,-96.228 0,-27.898 -10.652,-52.389 -28.342,-69.715 -7.272,-7.127 -17.145,-19.726 -15.559,-29.792 0.912,-5.81 3.429,-11.565 8.917,-15.712 8.13,-6.137 24.409,-1.75 32.45,4.504 33.188,25.829 54.793,65.305 54.793,110.578 0,80.212 -71.133,142.355 -151.375,142.355 C 73.501,311.048 5.959,248.898 5.959,168.687 Z"
           id="path4822" />
        <path
           style="fill:#933ec5"
           inkscape:connector-curvature="0"
           d="m 156.596,183.698 c -10.01,0 -23.917,-11.733 -23.917,-21.737 l 0,-139.482 C 132.679,21.077 132.913,0 155.885,0 c 10.007,0 23.188,5.257 23.188,22.479 l 0,139.482 c 0.005,10.004 -12.425,21.737 -22.477,21.737 z"
           id="path4824" />
      </g>
      <g
         id="g4826" />
      <g
         id="g4828" />
      <g
         id="g4830" />
      <g
         id="g4832" />
      <g
         id="g4834" />
      <g
         id="g4836" />
      <g
         id="g4838" />
      <g
         id="g4840" />
      <g
         id="g4842" />
      <g
         id="g4844" />
      <g
         id="g4846" />
      <g
         id="g4848" />
      <g
         id="g4850" />
      <g
         id="g4852" />
      <g
         id="g4854" />
    </g>
    <g
       transform="matrix(10.211336,0,0,10.211336,-1261.8775,-780.41489)"
       id="g4938">
      <circle
         style="fill:#1081e0"
         cx="29"
         cy="34"
         r="24"
         id="circle4940" />
      <circle
         style="fill:#ffffff;stroke:#1081e0;stroke-width:2;stroke-linecap:round;stroke-miterlimit:10"
         cx="29"
         cy="4"
         r="3"
         id="circle4942" />
      <line
         style="fill:none;stroke:#1081e0;stroke-width:2;stroke-linecap:round;stroke-miterlimit:10"
         x1="29"
         y1="7"
         x2="29"
         y2="10"
         id="line4944" />
      <polygon
         style="fill:#ffffff"
         points="33.243,38.243 16.272,46.728 24.757,29.757 "
         id="polygon4946" />
      <polygon
         style="fill:#d75a4a"
         points="33.243,38.243 41.728,21.272 24.757,29.757 "
         id="polygon4948" />
      <g
         id="g4950" />
      <g
         id="g4952" />
      <g
         id="g4954" />
      <g
         id="g4956" />
      <g
         id="g4958" />
      <g
         id="g4960" />
      <g
         id="g4962" />
      <g
         id="g4964" />
      <g
         id="g4966" />
      <g
         id="g4968" />
      <g
         id="g4970" />
      <g
         id="g4972" />
      <g
         id="g4974" />
      <g
         id="g4976" />
      <g
         id="g4978" />
    </g>
    <g
       transform="matrix(10.211336,0,0,10.211336,-1261.8775,-780.41489)"
       id="g4980">
      <circle
         style="fill:#1081e0"
         cx="29"
         cy="34"
         r="24"
         id="circle4982" />
      <circle
         style="fill:#ffffff;stroke:#1081e0;stroke-width:2;stroke-linecap:round;stroke-miterlimit:10"
         cx="29"
         cy="4"
         r="3"
         id="circle4984" />
      <line
         style="fill:none;stroke:#1081e0;stroke-width:2;stroke-linecap:round;stroke-miterlimit:10"
         x1="29"
         y1="7"
         x2="29"
         y2="10"
         id="line4986" />
      <polygon
         style="fill:#ffffff"
         points="33.243,38.243 16.272,46.728 24.757,29.757 "
         id="polygon4988" />
      <polygon
         style="fill:#d75a4a"
         points="33.243,38.243 41.728,21.272 24.757,29.757 "
         id="polygon4990" />
      <g
         id="g4992" />
      <g
         id="g4994" />
      <g
         id="g4996" />
      <g
         id="g4998" />
      <g
         id="g5000" />
      <g
         id="g5002" />
      <g
         id="g5004" />
      <g
         id="g5006" />
      <g
         id="g5008" />
      <g
         id="g5010" />
      <g
         id="g5012" />
      <g
         id="g5014" />
      <g
         id="g5016" />
      <g
         id="g5018" />
      <g
         id="g5020" />
    </g>
    <g
       transform="matrix(-1.2627405,0,0,-1.2627405,-2891.8573,-133.52068)"
       id="g4735">
      <path
         style="opacity:1;fill:url(#linearGradient4747);fill-opacity:1;stroke:#000000;stroke-width:2.41653538;stroke-linecap:round;stroke-linejoin:bevel;stroke-miterlimit:4;stroke-dasharray:none;stroke-dashoffset:0;stroke-opacity:1"
         d="M -998.57143,243.07647 A 112.85714,169.28572 0 0 1 -1111.4286,412.36219 112.85714,169.28572 0 0 1 -1224.2857,243.07647 112.85714,169.28572 0 0 1 -1111.4286,73.790746 112.85714,169.28572 0 0 1 -998.57143,243.07647 Z"
         id="path4737"
         inkscape:connector-curvature="0" />
      <path
         inkscape:connector-curvature="0"
         id="path4739"
         d="M -722.85714,238.79077 A 112.85714,169.28572 0 0 1 -835.71431,408.07649 112.85714,169.28572 0 0 1 -948.57141,238.79077 112.85714,169.28572 0 0 1 -835.71431,69.505046 112.85714,169.28572 0 0 1 -722.85714,238.79077 Z"
         style="opacity:1;fill:url(#linearGradient4749);fill-opacity:1;stroke:#000000;stroke-width:2.41653538;stroke-linecap:round;stroke-linejoin:bevel;stroke-miterlimit:4;stroke-dasharray:none;stroke-dashoffset:0;stroke-opacity:1" />
      <g
         id="g4741">
        <path
           style="opacity:1;fill:url(#linearGradient4751);fill-opacity:1;stroke:none;stroke-width:9.95400047;stroke-linecap:round;stroke-linejoin:bevel;stroke-miterlimit:4;stroke-dasharray:none;stroke-dashoffset:0;stroke-opacity:1"
           d="m -1100,235.21936 a 54.285713,54.285713 0 0 1 -54.2857,54.28571 54.285713,54.285713 0 0 1 -54.2858,-54.28571 54.285713,54.285713 0 0 1 54.2858,-54.28572 54.285713,54.285713 0 0 1 54.2857,54.28572 z"
           id="path4743"
           inkscape:connector-curvature="0" />
        <path
           inkscape:connector-curvature="0"
           id="path4745"
           d="m -828.57146,236.64791 a 54.285713,54.285713 0 0 1 -54.2857,54.28571 54.285713,54.285713 0 0 1 -54.2858,-54.28571 54.285713,54.285713 0 0 1 54.2858,-54.28572 54.285713,54.285713 0 0 1 54.2857,54.28572 z"
           style="opacity:1;fill:url(#linearGradient4753);fill-opacity:1;stroke:none;stroke-width:9.95400047;stroke-linecap:round;stroke-linejoin:bevel;stroke-miterlimit:4;stroke-dasharray:none;stroke-dashoffset:0;stroke-opacity:1" />
      </g>
    </g>
    <path
       inkscape:connector-curvature="0"
       style="opacity:1;fill:none;fill-opacity:1;stroke:#ff00ff;stroke-width:3.18897629;stroke-linecap:round;stroke-linejoin:bevel;stroke-miterlimit:4;stroke-dasharray:none;stroke-dashoffset:0;stroke-opacity:1"
       d="m -1321.3654,-788.84619 711.23326,0 0,711.233214 -711.23326,0 z"
       id="path5022" />
    <g
       id="g5024"
       inkscape:export-xdpi="22.777336"
       inkscape:export-ydpi="22.777336"
       transform="translate(-594.09861,-867.5087)">
      <g
         transform="matrix(10.211336,0,0,10.211336,-1734.6289,2003.5655)"
         id="g4766">
        <circle
           style="fill:#1081e0"
           cx="29"
           cy="34"
           r="24"
           id="circle4768" />
        <circle
           style="fill:#ffffff;stroke:#1081e0;stroke-width:2;stroke-linecap:round;stroke-miterlimit:10"
           cx="29"
           cy="4"
           r="3"
           id="circle4770" />
        <line
           style="fill:none;stroke:#1081e0;stroke-width:2;stroke-linecap:round;stroke-miterlimit:10"
           x1="29"
           y1="7"
           x2="29"
           y2="10"
           id="line4772" />
        <polygon
           style="fill:#ffffff"
           points="24.757,29.757 33.243,38.243 16.272,46.728 "
           id="polygon4774" />
        <polygon
           style="fill:#d75a4a"
           points="24.757,29.757 33.243,38.243 41.728,21.272 "
           id="polygon4776" />
        <g
           id="g4778" />
        <g
           id="g4780" />
        <g
           id="g4782" />
        <g
           id="g4784" />
        <g
           id="g4786" />
        <g
           id="g4788" />
        <g
           id="g4790" />
        <g
           id="g4792" />
        <g
           id="g4794" />
        <g
           id="g4796" />
        <g
           id="g4798" />
        <g
           id="g4800" />
        <g
           id="g4802" />
        <g
           id="g4804" />
        <g
           id="g4806" />
      </g>
      <path
         inkscape:connector-curvature="0"
         style="opacity:1;fill:none;fill-opacity:1;stroke:none;stroke-width:3.18897629;stroke-linecap:round;stroke-linejoin:bevel;stroke-miterlimit:4;stroke-dasharray:none;stroke-dashoffset:0;stroke-opacity:1"
         d="m -1794.1168,1995.1342 711.2333,0 0,711.2332 -711.2333,0 z"
         id="path4808" />
    </g>
    <g
       id="g4886"
       transform="translate(-1.105225e-4,-274.7615)"
       style="stroke:none"
       inkscape:export-xdpi="22.777336"
       inkscape:export-ydpi="22.777336">
      <g
         id="g4685"
         transform="matrix(10.211336,0,0,10.211336,-1617.4941,699.58511)"
         style="stroke:none">
        <circle
           id="circle4687"
           r="24"
           cy="34"
           cx="29"
           style="fill:#1081e0;stroke:none" />
        <circle
           id="circle4689"
           r="3"
           cy="4"
           cx="29"
           style="fill:#ffffff;stroke:none;stroke-width:2;stroke-linecap:round;stroke-miterlimit:10" />
        <line
           id="line4691"
           y2="10"
           x2="29"
           y1="7"
           x1="29"
           style="fill:none;stroke:none;stroke-width:2;stroke-linecap:round;stroke-miterlimit:10" />
        <polygon
           id="polygon4693"
           points="24.757,29.757 33.243,38.243 16.272,46.728 "
           style="fill:#ffffff;stroke:none" />
        <polygon
           id="polygon4695"
           points="24.757,29.757 33.243,38.243 41.728,21.272 "
           style="fill:#d75a4a;stroke:none" />
        <g
           id="g4697"
           style="stroke:none" />
        <g
           id="g4699"
           style="stroke:none" />
        <g
           id="g4701"
           style="stroke:none" />
        <g
           id="g4703"
           style="stroke:none" />
        <g
           id="g4705"
           style="stroke:none" />
        <g
           id="g4707"
           style="stroke:none" />
        <g
           id="g4709"
           style="stroke:none" />
        <g
           id="g4711"
           style="stroke:none" />
        <g
           id="g4713"
           style="stroke:none" />
        <g
           id="g4715"
           style="stroke:none" />
        <g
           id="g4717"
           style="stroke:none" />
        <g
           id="g4719"
           style="stroke:none" />
        <g
           id="g4721"
           style="stroke:none" />
        <g
           id="g4723"
           style="stroke:none" />
        <g
           id="g4725"
           style="stroke:none" />
      </g>
      <path
         id="path4729"
         d="m -1676.982,691.15381 711.23325,0 0,711.23319 -711.23325,0 z"
         style="opacity:1;fill:none;fill-opacity:1;stroke:none;stroke-width:3.18897629;stroke-linecap:round;stroke-linejoin:bevel;stroke-miterlimit:4;stroke-dasharray:none;stroke-dashoffset:0;stroke-opacity:1"
         inkscape:connector-curvature="0" />
    </g>
    <path
       id="path4755"
       d="m -2032.5987,-788.84619 711.2333,0 0,711.233214 -711.2333,0 z"
       style="opacity:1;fill:none;fill-opacity:1;stroke:#ff00ff;stroke-width:3.18897629;stroke-linecap:round;stroke-linejoin:bevel;stroke-miterlimit:4;stroke-dasharray:none;stroke-dashoffset:0;stroke-opacity:1"
       inkscape:connector-curvature="0" />
    <g
       id="g4910"
       transform="translate(64.649763,-129.29953)"
       inkscape:export-xdpi="22.777336"
       inkscape:export-ydpi="22.777336">
      <g
         transform="matrix(-1.2627405,0,0,-1.2627405,-3394.7144,1329.3365)"
         id="g4586">
        <path
           style="opacity:1;fill:url(#linearGradient4584);fill-opacity:1;stroke:#000000;stroke-width:2.41653538;stroke-linecap:round;stroke-linejoin:bevel;stroke-miterlimit:4;stroke-dasharray:none;stroke-dashoffset:0;stroke-opacity:1"
           d="M -998.57143,243.07647 A 112.85714,169.28572 0 0 1 -1111.4286,412.36219 112.85714,169.28572 0 0 1 -1224.2857,243.07647 112.85714,169.28572 0 0 1 -1111.4286,73.790746 112.85714,169.28572 0 0 1 -998.57143,243.07647 Z"
           id="path4582"
           inkscape:connector-curvature="0" />
        <path
           inkscape:connector-curvature="0"
           id="path4578"
           d="M -722.85714,238.79077 A 112.85714,169.28572 0 0 1 -835.71431,408.07649 112.85714,169.28572 0 0 1 -948.57141,238.79077 112.85714,169.28572 0 0 1 -835.71431,69.505046 112.85714,169.28572 0 0 1 -722.85714,238.79077 Z"
           style="opacity:1;fill:url(#linearGradient4580);fill-opacity:1;stroke:#000000;stroke-width:2.41653538;stroke-linecap:round;stroke-linejoin:bevel;stroke-miterlimit:4;stroke-dasharray:none;stroke-dashoffset:0;stroke-opacity:1" />
        <g
           id="g4560">
          <path
             style="opacity:1;fill:url(#linearGradient4558);fill-opacity:1;stroke:none;stroke-width:9.95400047;stroke-linecap:round;stroke-linejoin:bevel;stroke-miterlimit:4;stroke-dasharray:none;stroke-dashoffset:0;stroke-opacity:1"
             d="m -1100,235.21936 a 54.285713,54.285713 0 0 1 -54.2857,54.28571 54.285713,54.285713 0 0 1 -54.2858,-54.28571 54.285713,54.285713 0 0 1 54.2858,-54.28572 54.285713,54.285713 0 0 1 54.2857,54.28572 z"
             id="path4556"
             inkscape:connector-curvature="0" />
          <path
             inkscape:connector-curvature="0"
             id="circle4514"
             d="m -828.57146,236.64791 a 54.285713,54.285713 0 0 1 -54.2857,54.28571 54.285713,54.285713 0 0 1 -54.2858,-54.28571 54.285713,54.285713 0 0 1 54.2858,-54.28572 54.285713,54.285713 0 0 1 54.2857,54.28572 z"
             style="opacity:1;fill:url(#linearGradient4554);fill-opacity:1;stroke:none;stroke-width:9.95400047;stroke-linecap:round;stroke-linejoin:bevel;stroke-miterlimit:4;stroke-dasharray:none;stroke-dashoffset:0;stroke-opacity:1" />
        </g>
      </g>
      <path
         id="path4731"
         d="m -2535.4558,674.01095 711.2333,0 0,711.23325 -711.2333,0 z"
         style="opacity:1;fill:none;fill-opacity:1;stroke:none;stroke-width:3.18897629;stroke-linecap:round;stroke-linejoin:bevel;stroke-miterlimit:4;stroke-dasharray:none;stroke-dashoffset:0;stroke-opacity:1"
         inkscape:connector-curvature="0" />
    </g>
    <path
       id="path4816"
       d="m -610.13214,-788.84619 711.23326,0 0,711.233214 -711.23326,0 z"
       style="opacity:1;fill:none;fill-opacity:1;stroke:#ff00ff;stroke-width:3.18897629;stroke-linecap:round;stroke-linejoin:bevel;stroke-miterlimit:4;stroke-dasharray:none;stroke-dashoffset:0;stroke-opacity:1"
       inkscape:connector-curvature="0" />
    <g
       id="g4880"
       transform="translate(88.893424,-88.893424)"
       style="stroke:none"
       inkscape:export-xdpi="22.777336"
       inkscape:export-ydpi="22.777336">
      <g
         transform="matrix(0.73050679,0,0,0.73050679,-198.24012,908.98451)"
         id="g4143"
         style="stroke:none">
        <path
           inkscape:connector-curvature="0"
           style="fill:#ffffff;fill-rule:evenodd;stroke:none;stroke-width:1px;stroke-linecap:butt;stroke-linejoin:miter;stroke-opacity:1"
           d="m -654.28571,415.21938 0,-531.42859 560.000004,0"
           id="path4141" />
        <path
           inkscape:connector-curvature="0"
           style="fill:#ff7f2a;fill-rule:evenodd;stroke:none;stroke-width:1px;stroke-linecap:butt;stroke-linejoin:miter;stroke-opacity:1"
           d="m -94.285706,-116.20921 0,531.42859 -560.000004,0 560.000004,-531.42859"
           id="path4136" />
      </g>
      <path
         id="path4733"
         d="m -827.275,662.58238 711.23326,0 0,711.23322 -711.23326,0 z"
         style="opacity:1;fill:none;fill-opacity:1;stroke:none;stroke-width:3.18897629;stroke-linecap:round;stroke-linejoin:bevel;stroke-miterlimit:4;stroke-dasharray:none;stroke-dashoffset:0;stroke-opacity:1"
         inkscape:connector-curvature="0" />
    </g>
    <path
       inkscape:connector-curvature="0"
       style="opacity:1;fill:none;fill-opacity:1;stroke:#ff00ff;stroke-width:3.18897629;stroke-linecap:round;stroke-linejoin:bevel;stroke-miterlimit:4;stroke-dasharray:none;stroke-dashoffset:0;stroke-opacity:1"
       d="m 101.10112,-788.84619 711.23326,0 0,711.233214 -711.23326,0 z"
       id="path4856" />
    <g
       id="g4858"
       transform="translate(88.893424,-525.27932)"
       style="stroke:none"
       inkscape:export-xdpi="22.777336"
       inkscape:export-ydpi="22.777336">
      <g
         transform="matrix(1.64608,0,0,1.64608,137.86307,1217.6493)"
         id="g4403"
         style="stroke:none">
        <g
           id="g4361"
           style="stroke:none">
          <path
             style="fill:#933ec5;stroke:none"
             inkscape:connector-curvature="0"
             d="m 5.959,168.687 c 0,-45.567 23.046,-85.226 57.628,-111.059 8.16,-6.095 24.511,-8.806 31.083,-1.015 4.071,4.816 5.527,10.614 5.693,16.117 0.315,10.182 -10.235,22.578 -17.498,29.718 -17.348,17.069 -28.28,40.214 -28.28,66.377 0,54.733 44.37,96.228 99.103,96.228 54.752,0 99.133,-41.494 99.133,-96.228 0,-27.898 -10.652,-52.389 -28.342,-69.715 -7.272,-7.127 -17.145,-19.726 -15.559,-29.792 0.912,-5.81 3.429,-11.565 8.917,-15.712 8.13,-6.137 24.409,-1.75 32.45,4.504 33.188,25.829 54.793,65.305 54.793,110.578 0,80.212 -71.133,142.355 -151.375,142.355 C 73.501,311.048 5.959,248.898 5.959,168.687 Z"
             id="path4363" />
          <path
             style="fill:#933ec5;stroke:none"
             inkscape:connector-curvature="0"
             d="m 156.596,183.698 c -10.01,0 -23.917,-11.733 -23.917,-21.737 l 0,-139.482 C 132.679,21.077 132.913,0 155.885,0 c 10.007,0 23.188,5.257 23.188,22.479 l 0,139.482 c 0.005,10.004 -12.425,21.737 -22.477,21.737 z"
             id="path4365" />
        </g>
        <g
           id="g4367"
           style="stroke:none" />
        <g
           id="g4369"
           style="stroke:none" />
        <g
           id="g4371"
           style="stroke:none" />
        <g
           id="g4373"
           style="stroke:none" />
        <g
           id="g4375"
           style="stroke:none" />
        <g
           id="g4377"
           style="stroke:none" />
        <g
           id="g4379"
           style="stroke:none" />
        <g
           id="g4381"
           style="stroke:none" />
        <g
           id="g4383"
           style="stroke:none" />
        <g
           id="g4385"
           style="stroke:none" />
        <g
           id="g4387"
           style="stroke:none" />
        <g
           id="g4389"
           style="stroke:none" />
        <g
           id="g4391"
           style="stroke:none" />
        <g
           id="g4393"
           style="stroke:none" />
        <g
           id="g4395"
           style="stroke:none" />
      </g>
      <path
         inkscape:connector-curvature="0"
         style="opacity:1;fill:none;fill-opacity:1;stroke:none;stroke-width:3.18897629;stroke-linecap:round;stroke-linejoin:bevel;stroke-miterlimit:4;stroke-dasharray:none;stroke-dashoffset:0;stroke-opacity:1"
         d="m 38.243977,1159.7252 711.233263,0 0,711.2333 -711.233263,0 z"
         id="path4727" />
    </g>
  </g>
</svg>
